<?xml version="1.0" encoding="UTF-8" standalone="no"?> <svg id="Layer_1" data-name="Layer 1" xmlns="http://www.w3.org/2000/svg" viewBox="0 0 64 64"><title>Shooting star</title><path d="M53.06,59.28a1,1,0,0,1-.59-.19l-8-5.79-8,5.79a1,1,0,0,1-1.18,0A1,1,0,0,1,35,58l3-9.37-8-5.79a1,1,0,0,1-.36-1.12,1,1,0,0,1,.95-.69H40.5l3-9.37a1,1,0,0,1,1.9,0l3,9.37h9.85a1,1,0,0,1,.95.69,1,1,0,0,1-.36,1.12L51,48.6,54,58a1,1,0,0,1-.36,1.12A1,1,0,0,1,53.06,59.28ZM44.5,51.06a1.06,1.06,0,0,1,.59.19l6.07,4.41-2.32-7.13a1,1,0,0,1,.36-1.12L55.27,43h-7.5a1,1,0,0,1-1-.69L44.5,35.17l-2.32,7.14a1,1,0,0,1-1,.69h-7.5l6.07,4.41a1,1,0,0,1,.36,1.12l-2.32,7.13,6.07-4.41A1.06,1.06,0,0,1,44.5,51.06Z"/><path d="M29.07,56.07a4,4,0,0,1-2.83-1.17L4.79,33.45a4,4,0,1,1,5.66-5.66L31.9,49.24a4,4,0,0,1-2.83,6.83ZM7.62,28.62A2,2,0,0,0,6.21,32L27.66,53.49a2,2,0,1,0,2.83-2.83L9,29.21A2,2,0,0,0,7.62,28.62Z"/><path d="M53.38,33.38a4,4,0,0,1-2.83-1.17L31.79,13.45a4,4,0,0,1,5.66-5.66L56.21,26.55a4,4,0,0,1-2.83,6.83ZM34.62,8.62a2,2,0,0,0-1.41.59,2,2,0,0,0,0,2.83L52,30.79a2,2,0,0,0,2.83,0,2,2,0,0,0,.59-1.41A2,2,0,0,0,54.79,28L36,9.21A2,2,0,0,0,34.62,8.62Z"/><path d="M31.07,34.07a4,4,0,0,1-2.83-1.17L6.79,11.45a4,4,0,0,1,5.66-5.66L33.9,27.24a4,4,0,0,1,0,5.66h0A4,4,0,0,1,31.07,34.07ZM9.62,6.62A2,2,0,0,0,8.21,10L29.66,31.49a2,2,0,0,0,2.83,0h0a2,2,0,0,0,.58-1.42,2,2,0,0,0-.58-1.41L11,7.21A2,2,0,0,0,9.62,6.62Z"/></svg>